nColumns=19
nRows=107
DataType=double
version=3
OpenSimVersion=4.1
endheader
time	ground_force_1_vx	ground_force_1_vy	ground_force_1_vz	ground_force_1_px	ground_force_1_py	ground_force_1_pz	ground_force_1_mx	ground_force_1_my	ground_force_1_mz	ground_force_2_vx	ground_force_2_vy	ground_force_2_vz	ground_force_2_px	ground_force_2_py	ground_force_2_pz	ground_force_2_mx	ground_force_2_my	ground_force_2_mz
1.175	0	0	0	-0.000739016	0	0.000417057	0	0	0	-7.73924	21.7253	1.57887	0.867195	0	-0.342044	0	-0.077828	0
1.18333	0	0	0	-0.000739016	0	0.000417057	0	0	0	-25.0921	59.4419	2.75493	0.862001	0	-0.39473	0	-0.480222	0
1.19167	0	0	0	-0.000739016	0	0.000417057	0	0	0	-51.494	148.209	5.65181	0.872407	0	-0.413285	0	-0.925794	0
1.2	0	0	0	-0.000739016	0	0.000417057	0	0	0	-78.1564	311.908	10.6555	0.879315	0	-0.41683	0	-1.23224	0
1.20833	0	0	0	-0.000739016	0	0.000417057	0	0	0	-93.81	535.253	16.1355	0.879268	0	-0.413642	0	-1.24105	0
1.21667	0	0	0	-0.000739016	0	0.000417057	0	0	0	-97.095	752.519	18.0614	0.873076	0	-0.409843	0	-0.904067	0
1.225	0	0	0	-0.000739016	0	0.000417057	0	0	0	-99.8445	912.906	13.7357	0.863187	0	-0.409783	0	-0.339706	0
1.23333	0	0	0	-0.000739016	0	0.000417057	0	0	0	-120.109	1027.07	7.1548	0.852728	0	-0.413851	-0	0.191613	-0
1.24167	0	0	0	-0.000739016	0	0.000417057	0	0	0	-157.332	1132.28	7.13626	0.843288	0	-0.417958	-0	0.404377	-0
1.25	0	0	0	-0.000739016	0	0.000417057	0	0	0	-186.328	1251.18	17.573	0.831562	0	-0.41894	-0	0.133462	-0
1.25833	0	0	0	-0.000739016	0	0.000417057	0	0	0	-188.325	1373.45	32.7546	0.814687	0	-0.418562	0	-0.592932	0
1.26667	0	0	0	-0.000739016	0	0.000417057	0	0	0	-165.205	1476.29	44.4801	0.794425	0	-0.419296	0	-1.5971	0
1.275	0	0	0	-0.000739016	0	0.000417057	0	0	0	-130.391	1549.71	50.6585	0.773574	0	-0.421129	0	-2.6589	0
1.28333	0	0	0	-0.000739016	0	0.000417057	0	0	0	-93.9862	1593.41	54.4979	0.753069	0	-0.422817	0	-3.59909	0
1.29167	0	0	0	-0.000739016	0	0.000417057	0	0	0	-57.4654	1606.13	58.2955	0.732889	0	-0.423972	0	-4.30254	0
1.3	0	0	0	-0.000739016	0	0.000417057	0	0	0	-23.7207	1584.81	61.553	0.713542	0	-0.425303	0	-4.70358	0
1.30833	0	0	0	-0.000739016	0	0.000417057	0	0	0	5.09748	1532.39	63.2484	0.69521	0	-0.427059	0	-4.76793	0
1.31667	0	0	0	-0.000739016	0	0.000417057	0	0	0	32.656	1458.11	62.6514	0.67724	0	-0.428716	0	-4.48689	0
1.325	0	0	0	-0.000739016	0	0.000417057	0	0	0	62.4606	1368.24	58.843	0.658566	0	-0.430025	0	-3.88331	0
1.33333	0	0	0	-0.000739016	0	0.000417057	0	0	0	93.2594	1264.94	51.5231	0.638518	0	-0.431057	0	-3.01989	0
1.34167	0	0	0	-0.000739016	0	0.000417057	0	0	0	120.244	1150.7	41.8636	0.617792	0	-0.431724	0	-1.99717	0
1.35	0	0	0	-0.000739016	0	0.000417057	0	0	0	139.946	1028.28	31.5707	0.597589	0	-0.431766	0	-0.936737	0
1.35833	0	0	0	-0.000739016	0	0.000417057	0	0	0	151.245	898.996	21.4654	0.578237	0	-0.431214	-0	0.041507	-0
1.36667	0	0	0	-0.000739016	0	0.000417057	0	0	0	155.086	764.969	11.5939	0.559169	0	-0.430397	-0	0.836041	-0
1.375	0	0	0	-0.000739016	0	0.000417057	0	0	0	152.91	630.433	2.32776	0.540228	0	-0.429208	-0	1.37154	-0
1.38333	0	0	0	-0.000739016	0	0.000417057	0	0	0	143.41	499.905	-5.40119	0.522162	0	-0.427408	-0	1.60342	-0
1.39167	0	0	0	-0.000739016	0	0.000417057	0	0	0	126.966	378.754	-10.8398	0.505303	0	-0.425225	-0	1.5225	-0
1.4	0	0	0	-0.000739016	0	0.000417057	0	0	0	106.801	272.31	-13.7558	0.488857	0	-0.423152	-0	1.15723	-0
1.40833	0	0	0	-0.000739016	0	0.000417057	0	0	0	86.3985	184.792	-14.1445	0.472494	0	-0.420004	-0	0.570125	-0
1.41667	0	0	0	-0.000739016	0	0.000417057	0	0	0	66.4333	117.99	-12.2686	0.459558	0	-0.411652	0	-0.151864	0
1.425	0	0	0	-0.000739016	0	0.000417057	0	0	0	46.0872	70.2913	-9.02344	0.455683	0	-0.39401	0	-0.911833	0
1.43333	0	0	0	-0.000739016	0	0.000417057	0	0	0	27.5378	38.9101	-5.65881	0.46444	0	-0.365338	0	-1.61997	0
1.44167	0	0	0	-0.000739016	0	0.000417057	0	0	0	14.1457	20.5831	-2.95917	0.483446	0	-0.324866	0	-2.20718	0
1.45	0	0	0	-0.000739016	0	0.000417057	0	0	0	6.4581	11.6028	-1.01477	0.518935	0	-0.259437	0	-2.62851	0
1.45833	0	0	0	-0.000739016	0	0.000417057	0	0	0	0	0	0	-0.000739016	0	0.000417057	0	0	0
1.46667	0	0	0	-0.000739016	0	0.000417057	0	0	0	0	0	0	-0.000739016	0	0.000417057	0	0	0
1.475	0	0	0	-0.000739016	0	0.000417057	0	0	0	0	0	0	-0.000739016	0	0.000417057	0	0	0
1.48333	0	0	0	-0.000739016	0	0.000417057	0	0	0	0	0	0	-0.000739016	0	0.000417057	0	0	0
1.49167	0	0	0	-0.000739016	0	0.000417057	0	0	0	0	0	0	-0.000739016	0	0.000417057	0	0	0
1.5	0	0	0	-0.000739016	0	0.000417057	0	0	0	0	0	0	-0.000739016	0	0.000417057	0	0	0
1.50833	0	0	0	-0.000739016	0	0.000417057	0	0	0	0	0	0	-0.000739016	0	0.000417057	0	0	0
1.51667	-5.02695	20.9655	-5.21142	0.856141	0	-0.248679	-0	1.54868	-0	0	0	0	-0.000739016	0	0.000417057	0	0	0
1.525	-14.9194	60.9753	-10.4688	0.873714	0	-0.29086	-0	2.18382	-0	0	0	0	-0.000739016	0	0.000417057	0	0	0
1.53333	-30.8386	157.773	-16.3141	0.884588	0	-0.309958	-0	2.25237	-0	0	0	0	-0.000739016	0	0.000417057	0	0	0
1.54167	-50.4894	341.166	-19.2206	0.887536	0	-0.319379	-0	1.60254	-0	0	0	0	-0.000739016	0	0.000417057	0	0	0
1.55	-72.5462	596.354	-14.9055	0.883492	0	-0.323725	-0	0.258684	-0	0	0	0	-0.000739016	0	0.000417057	0	0	0
1.55833	-94.2722	849.235	-3.08529	0.87591	0	-0.325404	0	-1.5389	0	0	0	0	-0.000739016	0	0.000417057	0	0	0
1.56667	-115.689	1037.98	9.61776	0.866091	0	-0.326039	0	-3.38678	0	0	0	0	-0.000739016	0	0.000417057	0	0	0
1.575	-143.559	1167.77	14.8377	0.854088	0	-0.327031	0	-4.85676	0	0	0	0	-0.000739016	0	0.000417057	0	0	0
1.58333	-173.794	1280.48	11.2583	0.840737	0	-0.328309	0	-5.64506	0	0	0	0	-0.000739016	0	0.000417057	0	0	0
1.59167	-191.774	1400.76	5.07063	0.825506	0	-0.328562	0	-5.6442	0	0	0	0	-0.000739016	0	0.000417057	0	0	0
1.6	-189.164	1520.63	1.44329	0.807584	0	-0.327684	0	-4.91533	0	0	0	0	-0.000739016	0	0.000417057	0	0	0
1.60833	-164.596	1621.75	-0.56751	0.787496	0	-0.326603	0	-3.61458	0	0	0	0	-0.000739016	0	0.000417057	0	0	0
1.61667	-126.59	1691.13	-4.25439	0.766986	0	-0.325783	0	-1.93493	0	0	0	0	-0.000739016	0	0.000417057	0	0	0
1.625	-87.3724	1722.72	-10.3425	0.747311	0	-0.324795	0	-0.079465	0	0	0	0	-0.000739016	0	0.000417057	0	0	0
1.63333	-52.1176	1715.51	-17.2185	0.728723	0	-0.323202	-0	1.75027	-0	0	0	0	-0.000739016	0	0.000417057	0	0	0
1.64167	-22.3682	1669.89	-23.5042	0.711149	0	-0.321211	-0	3.36397	-0	0	0	0	-0.000739016	0	0.000417057	0	0	0
1.65	2.86132	1589.55	-28.8547	0.693955	0	-0.319125	-0	4.59225	-0	0	0	0	-0.000739016	0	0.000417057	0	0	0
1.65833	26.7674	1483.61	-33.0464	0.676349	0	-0.317137	-0	5.29875	-0	0	0	0	-0.000739016	0	0.000417057	0	0	0
1.66667	52.4083	1362.76	-34.8783	0.657703	0	-0.315463	-0	5.39965	-0	0	0	0	-0.000739016	0	0.000417057	0	0	0
1.675	79.0884	1233.25	-32.4063	0.637946	0	-0.31412	-0	4.88999	-0	0	0	0	-0.000739016	0	0.000417057	0	0	0
1.68333	102.407	1095.83	-24.953	0.61779	0	-0.312971	-0	3.8633	-0	0	0	0	-0.000739016	0	0.000417057	0	0	0
1.69167	119.441	950.309	-14.5204	0.597836	0	-0.312027	-0	2.50427	-0	0	0	0	-0.000739016	0	0.000417057	0	0	0
1.7	128.285	797.758	-4.30587	0.578142	0	-0.311492	-0	1.04678	-0	0	0	0	-0.000739016	0	0.000417057	0	0	0
1.70833	128.276	642.261	3.87166	0.558614	0	-0.311162	0	-0.285651	0	0	0	0	-0.000739016	0	0.000417057	0	0	0
1.71667	120.287	491.965	9.86053	0.539964	0	-0.310097	0	-1.32967	0	0	0	0	-0.000739016	0	0.000417057	0	0	0
1.725	106.619	355.878	13.5925	0.523426	0	-0.307309	0	-2.00651	0	0	0	0	-0.000739016	0	0.000417057	0	0	0
1.73333	89.6119	240.616	14.5713	0.509894	0	-0.302216	0	-2.32272	0	0	0	0	-0.000739016	0	0.000417057	0	0	0
1.74167	70.1634	150.516	12.9038	0.500212	0	-0.293889	0	-2.35405	0	0	0	0	-0.000739016	0	0.000417057	0	0	0
1.75	50.0609	87.6195	9.79402	0.499261	0	-0.279445	0	-2.21619	0	0	0	0	-0.000739016	0	0.000417057	0	0	0
1.75833	31.7863	48.5256	6.68656	0.517695	0	-0.25544	0	-2.02825	0	0	0	0	-0.000739016	0	0.000417057	0	0	0
1.76667	17.7084	26.0575	4.35989	0.561487	0	-0.219471	0	-1.87947	0	0	0	0	-0.000739016	0	0.000417057	0	0	0
1.775	9.11662	13.7686	2.9048	0.611631	0	-0.165314	0	-1.80982	0	0	0	0	-0.000739016	0	0.000417057	0	0	0
1.78333	0	0	0	-0.000739016	0	0.000417057	0	0	0	0	0	0	-0.000739016	0	0.000417057	0	0	0
1.79167	0	0	0	-0.000739016	0	0.000417057	0	0	0	0	0	0	-0.000739016	0	0.000417057	0	0	0
1.8	0	0	0	-0.000739016	0	0.000417057	0	0	0	0	0	0	-0.000739016	0	0.000417057	0	0	0
1.80833	0	0	0	-0.000739016	0	0.000417057	0	0	0	0	0	0	-0.000739016	0	0.000417057	0	0	0
1.81667	0	0	0	-0.000739016	0	0.000417057	0	0	0	0	0	0	-0.000739016	0	0.000417057	0	0	0
1.825	0	0	0	-0.000739016	0	0.000417057	0	0	0	0	0	0	-0.000739016	0	0.000417057	0	0	0
1.83333	0	0	0	-0.000739016	0	0.000417057	0	0	0	0	0	0	-0.000739016	0	0.000417057	0	0	0
1.84167	0	0	0	-0.000739016	0	0.000417057	0	0	0	0	0	0	-0.000739016	0	0.000417057	0	0	0
1.85	0	0	0	-0.000739016	0	0.000417057	0	0	0	-9.46242	21.5666	-0.471302	0.84252	0	-0.294577	0	-0.556209	0
1.85833	0	0	0	-0.000739016	0	0.000417057	0	0	0	-22.9001	57.5328	-1.54756	0.85073	0	-0.370487	0	-0.457788	0
1.86667	0	0	0	-0.000739016	0	0.000417057	0	0	0	-42.5615	145.038	-1.90716	0.865249	0	-0.393869	0	-0.397451	0
1.875	0	0	0	-0.000739016	0	0.000417057	0	0	0	-61.5087	307.917	-0.768442	0.875001	0	-0.397228	0	-0.312605	0
1.88333	0	0	0	-0.000739016	0	0.000417057	0	0	0	-72.9609	528.079	1.42558	0.876238	0	-0.394353	0	-0.147306	0
1.89167	0	0	0	-0.000739016	0	0.000417057	0	0	0	-77.2449	738.917	2.32942	0.871033	0	-0.391373	-0	0.105444	-0
1.9	0	0	0	-0.000739016	0	0.000417057	0	0	0	-84.4102	895.344	-0.055014	0.862404	0	-0.391611	-0	0.372319	-0
1.90833	0	0	0	-0.000739016	0	0.000417057	0	0	0	-108.846	1014.79	-3.28791	0.852594	0	-0.395089	-0	0.509683	-0
1.91667	0	0	0	-0.000739016	0	0.000417057	0	0	0	-146.271	1133.3	-1.37133	0.842446	0	-0.398409	-0	0.367296	-0
1.925	0	0	0	-0.000739016	0	0.000417057	0	0	0	-172.794	1265.47	8.17143	0.829582	0	-0.399356	0	-0.129035	0
1.93333	0	0	0	-0.000739016	0	0.000417057	0	0	0	-172.809	1398.16	20.937	0.812119	0	-0.399481	0	-0.938342	0
1.94167	0	0	0	-0.000739016	0	0.000417057	0	0	0	-148.628	1511.79	31.197	0.791573	0	-0.400536	0	-1.93556	0
1.95	0	0	0	-0.000739016	0	0.000417057	0	0	0	-112.967	1596.64	38.0042	0.770309	0	-0.402328	0	-2.97568	0
1.95833	0	0	0	-0.000739016	0	0.000417057	0	0	0	-75.5644	1649.48	43.8036	0.749231	0	-0.403893	0	-3.93636	0
1.96667	0	0	0	-0.000739016	0	0.000417057	0	0	0	-38.9844	1667.31	49.6791	0.728785	0	-0.405008	0	-4.72236	0
1.975	0	0	0	-0.000739016	0	0.000417057	0	0	0	-5.98264	1647.89	54.6696	0.709671	0	-0.406141	0	-5.25277	0
1.98333	0	0	0	-0.000739016	0	0.000417057	0	0	0	22.5669	1595.14	57.8035	0.691683	0	-0.407396	0	-5.4541	0
1.99167	0	0	0	-0.000739016	0	0.000417057	0	0	0	50.0483	1517.96	58.3759	0.673923	0	-0.40842	0	-5.26759	0
2	0	0	0	-0.000739016	0	0.000417057	0	0	0	77.9755	1422.3	55.4035	0.655732	0	-0.409035	0	-4.6692	0
2.00833	0	0	0	-0.000739016	0	0.000417057	0	0	0	104.841	1309.59	48.2711	0.63681	0	-0.409231	0	-3.6931	0
2.01667	0	0	0	-0.000739016	0	0.000417057	0	0	0	128.625	1181.54	37.568	0.617342	0	-0.408979	0	-2.44426	0
2.025	0	0	0	-0.000739016	0	0.000417057	0	0	0	147.571	1041.6	24.9124	0.597746	0	-0.408242	0	-1.08888	0
2.03333	0	0	0	-0.000739016	0	0.000417057	0	0	0	158.852	893.403	12.0777	0.578408	0	-0.407035	-0	0.176437	-0
2.04167	0	0	0	-0.000739016	0	0.000417057	0	0	0	161.487	741.856	0.358781	0.55909	0	-0.405376	-0	1.16487	-0
2.05	0	0	0	-0.000739016	0	0.000417057	0	0	0	157.553	593.798	-9.46592	0.539712	0	-0.403133	-0	1.73501	-0
2.05833	0	0	0	-0.000739016	0	0.000417057	0	0	0	148.109	454.893	-16.9531	0.521465	0	-0.400267	-0	1.81324	-0
